<svg class="i" viewBox="0 0 714 119" fill="none" xmlns="http://www.w3.org/2000/svg">
                    <path d="M84.7968 0H53.2531L103.352 119H134.896L84.7968 0Z" fill="white" />
                    <path d="M0 119H31.5437L60.4896 50.5241H28.9459L0 119Z" fill="white" />
                    <path d="M663.901 0H632.358L682.456 119H714L663.901 0Z" fill="white" />
                    <path d="M579.104 119H610.648L639.594 50.5241H608.05L579.104 119Z" fill="white" />
                    <path d="M376.854 0H349.392V119H376.854V0Z" fill="white" />
                    <path d="M518.244 0L485.958 50.339L453.672 0H424.726V119H451.26V39.2348L485.958 90.8694L520.842 39.2348V119H547.375V0H518.244Z" fill="white" />
                    <path d="M228.784 34.6081L194.086 0H156.234L209.858 53.6703L228.784 34.6081Z" fill="#C20012" />
                    <path d="M259.4 53.6703L313.024 0H275.172L240.474 34.6081L259.4 53.6703Z" fill="#C20012" />
                    <path d="M240.474 84.3919L275.172 119H313.024L259.4 65.3297L240.474 84.3919Z" fill="#C20012" />
                    <path d="M209.858 65.3297L156.234 119H194.086L228.784 84.3919L209.858 65.3297Z" fill="#C20012" />
                </svg>