<svg class="i" viewBox="0 0 192 32" fill="#fff" xmlns="http://www.w3.org/2000/svg">
                            <path d="M22.8025 0H14.3202L27.7921 32H36.2744L22.8025 0Z" />
                            <path d="M0 32H8.48233L16.2661 13.5863H7.78378L0 32Z" />
                            <path d="M178.528 0H170.046L183.518 32H192L178.528 0Z" />
                            <path d="M155.726 32H164.208L171.992 13.5863H163.509L155.726 32Z" />
                            <path d="M101.339 0H93.9543V32H101.339V0Z" />
                            <path d="M139.36 0L130.678 13.5365L121.996 0H114.212V32H121.347V10.5505L130.678 24.4355L140.058 10.5505V32H147.193V0H139.36Z" />
                            <path d="M61.5218 9.30638L52.1913 0H42.0125L56.4324 14.4323L61.5218 9.30638Z" />
                            <path d="M69.7547 14.4323L84.1746 0H73.9958L64.6653 9.30638L69.7547 14.4323Z" />
                            <path d="M64.6653 22.6936L73.9958 32H84.1746L69.7547 17.5676L64.6653 22.6936Z" />
                            <path d="M56.4324 17.5676L42.0125 32H52.1913L61.5218 22.6936L56.4324 17.5676Z" />
                        </svg>